PathFileType        4      (X/Y/Z)      Walking.trc         
DataRate	CameraRate	NumFrames	NumMarkers	Units	OrigDataRate	OrigDataStartFrame	OrigNumFrames
100.0	100.0	10	18	mm	100.0	59	97
Frame#	Time	T2			T10			MANU			LASI			RASI			SACR			LTHI			LKNE			LTIB			LANK			LHEE			LTOE			RTHI			RKNE			RTIB			RANK			RHEE			RTOE			
		X1	Y1	Z1	X2	Y2	Z2	X3	Y3	Z3	X4	Y4	Z4	X5	Y5	Z5	X6	Y6	Z6	X7	Y7	Z7	X8	Y8	Z8	X9	Y9	Z9	X10	Y10	Z10	X11	Y11	Z11	X12	Y12	Z12	X13	Y13	Z13	X14	Y14	Z14	X15	Y15	Z15	X16	Y16	Z16	X17	Y17	Z17	X18	Y18	Z18	
59	3.82	665.83370848	1127.62455411	64.34829156	645.40414978	934.38651451	64.83031139	783.32037165	1059.13543951	61.48123425	802.36477022	729.57390651	-11.63243902	771.53797997	734.18238269	199.21372673	667.48906966	771.70910079	72.67042371	876.82495414	427.59723798	-27.78655879	889.03880157	363.86929839	20.97875279	832.57258466	135.89052467	-44.36587209	782.86119842	59.54921592	-23.28135591	719.43443821	39.90118435	-24.36386669	877.60110862	26.23040549	46.01541179	698.61761183	417.84409378	240.52851325	666.41015938	345.02631089	195.15671042	513.06947588	177.81914404	261.8370114	423.67293353	110.93421532	235.79296373	380.22344541	148.22798358	233.88678304	418.38860779	26.5723392	130.76616804	
60	3.83	677.0973076	1129.28899068	63.41379134	657.35670782	935.99227101	64.15961432	794.75521933	1061.16621436	61.11046387	814.16553551	731.47337117	-12.09832128	782.58364499	735.36866561	198.62159671	679.16357814	773.96700492	72.0567048	882.67878786	427.30254752	-29.08881661	893.4728513	363.12249417	19.75674694	833.76041099	135.49225279	-45.19159049	783.16696183	59.84724879	-23.85899035	719.51450096	40.76222392	-24.95774387	877.42252737	26.17853765	45.70187051	712.41615705	419.09056255	240.51737205	681.6222262	345.85344513	195.46204102	528.66135451	178.97040937	262.62447479	439.10921943	111.88309593	236.71629683	396.62170849	150.31692479	235.35211033	429.07775803	27.06756303	130.95713011	
61	3.84	688.34718055	1131.38922481	62.56371611	669.09637824	938.06682889	63.5544124	806.09736225	1063.54568871	60.87553428	825.53217435	733.79758083	-12.57953787	793.41819827	737.05501959	198.00975416	690.52405443	776.58930399	71.53393333	887.66038244	427.29737511	-30.58467312	897.04916904	362.69803322	18.29356236	834.78421644	135.23799853	-46.13778334	783.61595032	60.12621106	-24.44629413	719.78930068	41.52466244	-25.54969992	877.42838989	26.100836	45.44485	726.72943423	420.79580029	240.57797696	697.47993702	347.08512432	195.83464547	545.28308628	180.1095272	263.31951652	455.67215831	112.80913689	237.52213428	413.7825801	151.9514354	236.56541739	442.61853996	27.68872239	131.18351139	
62	3.85	699.58220394	1133.87773265	61.80158547	680.61651638	940.5618176	63.00516903	817.34479666	1066.2251112	60.77127136	836.46382643	736.48921005	-13.0893784	804.05890509	739.19447442	197.36324058	701.56852171	779.51757617	71.09627472	891.89730664	427.57166705	-32.18333548	899.8654149	362.58231523	16.6839365	835.67131246	135.14393223	-47.155526	784.16501503	60.4157633	-25.04260582	720.21168249	42.2376243	-26.16012631	877.54822956	26.00669734	45.24299229	741.56724625	422.93491831	240.70348615	713.98775587	348.71139313	196.26499887	562.87148413	181.28335291	263.91458551	473.29666218	113.76716936	238.18707253	431.61098072	153.18408696	237.45431964	459.06820014	28.41571976	131.47090054	
63	3.86	710.80189573	1136.69600454	61.128821	691.91556397	943.41729156	62.50161125	828.49782227	1069.14619302	60.79023318	846.9715834	739.48187315	-13.63589704	814.52223076	741.72458442	196.67303927	712.30139752	782.68512353	70.73632779	895.5359828	428.11368234	-33.80937434	902.04350646	362.7581962	15.00845688	836.44536213	135.22664795	-48.20731963	784.77173795	60.74959239	-25.64933344	720.73447131	42.95583346	-26.80195274	877.71943527	25.90549498	45.08656942	756.92310105	425.47419721	240.88464081	731.13934993	350.71556411	196.74004221	581.35768041	182.53850632	264.40812353	491.92108923	114.79461712	238.69743333	450.0504396	154.07700869	237.97884984	478.32899219	29.22764932	131.84100852	
64	3.87	722.00609862	1139.77681892	60.54495579	702.99632751	946.56416374	62.03356106	839.55851977	1072.24306696	60.92337899	857.07634537	742.70274339	-14.22227543	824.82307014	744.57017754	195.93607193	722.73258278	786.01926624	70.44569643	898.72714276	428.90602484	-35.40839526	903.72006837	363.20284391	13.32827771	837.12896573	135.49805853	-49.26759872	785.40191952	61.15901265	-26.26759054	721.31779199	43.73091025	-27.47819514	877.8954199	25.80486773	44.96139864	772.7753947	428.3730407	241.10999132	748.91759462	353.07528001	197.24374187	600.67316757	183.91517279	264.80413542	511.49101483	115.90846724	239.05092994	469.08448314	154.69382771	238.13710698	500.16352595	30.10793307	132.30735372	
65	3.88	733.19468605	1143.04681352	60.04798024	713.86517177	949.92693558	61.59175094	850.53022388	1075.44452322	61.16074103	866.80634937	746.07520229	-14.84790945	834.97463219	747.64649245	195.15440231	732.87647589	789.44376439	70.21561171	901.6137391	429.92319372	-36.94902516	905.03734792	363.88657003	11.68329291	837.74532312	135.96194473	-50.32161645	786.03319777	61.66876988	-26.89681346	721.93256291	44.60582919	-28.18221182	878.04817262	25.70988898	44.85209256	789.09028904	431.58597214	241.36606106	767.2952081	355.76358971	197.7578283	620.75471213	185.44170495	265.11112255	531.96002919	117.10589799	239.25695861	488.72978986	155.09255376	237.9642054	524.22880597	31.04702582	132.87332691	
66	3.89	744.36731641	1146.42921332	59.6347897	724.53118701	953.42657098	61.16856957	861.41702513	1078.67640279	61.49203573	876.19466144	749.52146293	-15.50994313	844.98885468	750.86258908	194.33388162	742.75099956	792.8812708	70.03752857	904.32229347	431.1307446	-38.4214156	906.13515317	364.77264655	10.09343257	838.31893218	136.61221483	-51.36311991	786.65551168	62.29483596	-27.53423575	722.56115498	45.6120601	-28.8999114	878.16672601	25.62299405	44.74450126	805.82557344	435.06464808	241.63754503	786.23571372	358.75007092	198.26268969	641.5474703	187.13085665	265.34063357	553.28806672	118.36771698	239.33550596	509.02362223	155.32014419	237.5249471	550.12212473	32.04191977	133.53337527	
67	3.9	755.52325169	1149.84656931	59.30168436	735.00538351	956.98336009	60.75867704	872.22332709	1081.86403588	61.90716206	885.27689489	752.96510361	-16.20491154	854.87716239	754.12492735	193.48253066	752.37671609	796.25572843	69.90361792	906.95796567	432.48584056	-39.83298052	907.14417425	365.81796394	8.56234867	838.87536978	137.43268541	-52.39132544	787.26929207	63.04376982	-28.17494254	723.19613605	46.76868724	-29.61291456	878.25322932	25.54445074	44.6273547	822.93465456	438.7598487	241.90764383	805.69442644	362.0020122	198.73836933	663.00598847	188.97821687	265.50575573	575.4383182	119.66326123	239.31492912	530.00913406	155.40899121	236.90215645	577.4302142	33.0928757	134.27702868	
68	3.91	766.66124775	1153.2233692	59.04486353	745.29996187	960.51962687	60.35942943	882.95348043	1084.93462113	62.39655308	894.08935594	756.33343453	-16.93016222	864.65135881	757.34100576	192.60895037	761.77608617	799.49463278	69.80709158	909.60304318	433.93882305	-41.20242905	908.18087297	366.97431823	7.08252382	839.44030179	138.39805047	-53.40771912	787.88227007	63.91316819	-28.81218395	723.83781801	48.08282204	-30.30168712	878.31814118	25.47311665	44.49319144	840.3698842	442.62334558	242.15858536	825.61924362	365.48561174	199.16557232	685.09318262	190.96303441	265.61983339	598.37397055	120.95537012	239.22902987	551.72213043	155.37519662	236.1834541	605.77342484	34.19869706	135.09458198	
